<?xml version="1.0" standalone="no"?>
<!DOCTYPE svg PUBLIC "-//W3C//DTD SVG 20010904//EN"
 "http://www.w3.org/TR/2001/REC-SVG-20010904/DTD/svg10.dtd">
<svg version="1.0" xmlns="http://www.w3.org/2000/svg"
 width="381.000000pt" height="128.000000pt" viewBox="0 0 381.000000 128.000000"
 preserveAspectRatio="xMidYMid meet">

<g transform="translate(0.000000,128.000000) scale(0.100000,-0.100000)"
fill="#000000" stroke="none">
<path d="M2 1108 c1 -168 2 -170 7 -58 6 122 13 142 69 203 l26 27 -52 0 -52
0 2 -172z"/>
<path d="M1202 1253 c53 -58 63 -83 69 -183 5 -88 6 -83 7 58 l2 152 -52 0
-52 0 26 -27z"/>
<path d="M417 983 c-4 -3 -7 -136 -7 -295 l0 -288 55 0 55 0 0 295 0 295 -48
0 c-27 0 -52 -3 -55 -7z"/>
<path d="M777 983 c-4 -3 -7 -39 -7 -78 l0 -73 -55 -4 c-62 -5 -86 -22 -118
-83 -28 -52 -31 -219 -5 -277 31 -71 112 -97 176 -58 28 17 33 18 38 5 4 -10
20 -15 46 -15 l41 0 -7 38 c-3 20 -6 153 -6 295 l0 257 -48 0 c-27 0 -52 -3
-55 -7z m-9 -366 c3 -104 2 -108 -20 -116 -34 -12 -47 -3 -59 43 -23 84 9 191
54 184 21 -3 22 -9 25 -111z"/>
<path d="M2290 835 l-34 -35 55 0 c45 0 63 5 92 28 20 15 36 30 37 35 0 4 -26
7 -58 7 -53 0 -61 -3 -92 -35z"/>
<path d="M1428 774 c-5 -4 -8 -75 -8 -157 0 -126 -3 -153 -17 -169 -16 -17
-10 -18 148 -18 151 0 168 2 209 23 58 29 80 62 87 128 4 44 1 66 -15 103 -32
71 -78 88 -257 94 -77 2 -143 1 -147 -4z m252 -93 c5 -11 10 -51 10 -89 0 -64
-2 -70 -25 -80 -14 -7 -41 -12 -60 -12 l-35 0 0 100 0 100 50 0 c38 0 52 -4
60 -19z"/>
<path d="M2223 768 c-16 -20 -133 -310 -133 -330 0 -5 31 -8 70 -8 l70 0 18
38 c17 37 18 37 77 37 59 0 60 0 78 -37 l17 -38 75 0 c41 0 75 3 75 7 0 12
-90 246 -113 293 l-22 45 -101 3 c-73 2 -104 -1 -111 -10z m132 -120 c8 -28
15 -55 15 -60 0 -4 -20 -8 -44 -8 l-45 0 16 53 c25 86 36 89 58 15z"/>
<path d="M3385 769 c-86 -24 -127 -130 -94 -240 19 -63 56 -90 141 -102 90
-12 194 -2 237 24 42 25 64 79 64 155 -1 89 -32 139 -102 163 -39 13 -202 13
-246 0z m179 -85 c11 -11 16 -35 16 -80 0 -74 -20 -104 -70 -104 -49 0 -70 30
-70 101 0 83 10 99 65 99 26 0 50 -6 59 -16z"/>
<path d="M1900 600 l0 -171 73 3 72 3 3 168 2 167 -75 0 -75 0 0 -170z"/>
<path d="M2629 663 c-1 -59 -3 -136 -4 -170 l-3 -63 74 0 74 0 0 60 c0 53 2
60 20 60 12 0 33 -21 60 -60 l41 -60 79 0 80 0 -50 68 c-28 38 -50 71 -50 75
0 3 14 19 30 35 40 40 40 81 1 124 l-29 33 -161 3 -161 3 -1 -108z m212 37
c22 -12 26 -59 7 -78 -7 -7 -27 -12 -45 -12 -33 0 -33 0 -33 50 0 47 2 50 26
50 14 0 34 -5 45 -10z"/>
<path d="M3090 600 l0 -170 70 0 70 0 0 170 0 170 -70 0 -70 0 0 -170z"/>
<path d="M2 198 l-2 -198 108 1 c74 1 97 3 74 9 -52 12 -109 56 -139 107 -25
43 -29 61 -34 163 -5 102 -6 92 -7 -82z"/>
<path d="M1270 258 c0 -74 -4 -89 -30 -135 -32 -56 -88 -100 -142 -113 -23 -6
0 -8 75 -9 l107 -1 0 170 c0 94 -2 170 -5 170 -3 0 -5 -37 -5 -82z"/>
</g>
</svg>
